# xmcd
#
# Track frame offsets:
# 150
# 16915
# 34258
# 50423
# 66402
# 77325
# 91651
# 103066
# 116351
# 132443
# 146880
# 159676
# 177182
# 192508
#
# Disc length: 2740 seconds
#
#
# Revision: 0
# Processed by: cddbd v1.5PL3 Copyright (c) Steve Scherf et al.
# Submitted via: FreeRIP 2.30 
#
DISCID=bd0ab20e
DTITLE=The Best Of Country - The Best Of Country
DYEAR=2000
DGENRE=Country
TTITLE0=In The Blink Of an Eye
TTITLE1=Back In America
TTITLE2=Walking Away a Winner
TTITLE3=God Blessed Texas
TTITLE4=Forever Young
TTITLE5=All Over Town
TTITLE6=My Baby Loves Me
TTITLE7=America Made
TTITLE8=He Thinks He´ll Keep Her
TTITLE9=Get a Little Crazy
TTITLE10=I Never Met a Woman That I Didn´t Like
TTITLE11=I Don´t Even Know Your Name
TTITLE12=Fast As You
TTITLE13=I´ve Got Your Number
EXTD=
EXTT0=Exile
EXTT1=Western Flyer
EXTT2=Cheri Aseheraft
EXTT3=Boro Boys
EXTT4=Tim O´Brien
EXTT5=Don Cox
EXTT6=Melanie MeGowon
EXTT7=Doug Wayne
EXTT8=Rachel Anderson
EXTT9=Bellamy Brothers
EXTT10=Don Cox
EXTT11=David Lee
EXTT12=Dany Lockwood
EXTT13=Paulette Carlsohn
PLAYORDER=
